<svg width="88" height="116" viewBox="0 0 88 116" fill="none" xmlns="http://www.w3.org/2000/svg">
<g clip-path="url(#clip0_55_59)">
<path d="M22.6719 0.578125C39.6102 0.578125 56.5484 0.578125 74 0.578125C74 29.582 74 58.5859 74 88.4688C72.2077 86.9325 72.2077 86.9325 71.5537 86.2275C69.8844 84.5471 67.9155 83.6841 65.5625 83.4297C65.3305 83.391 65.0984 83.3523 64.8594 83.3125C64.7047 83.0805 64.55 82.8484 64.3906 82.6094C64.4879 82.4346 64.4879 82.4346 64.5872 82.2564C68.6379 74.9263 70.0128 67.0245 67.7744 58.8643C65.5882 51.3375 60.703 44.9447 53.8438 41.125C53.5888 40.983 53.3338 40.841 53.071 40.6947C46.7362 37.3521 39.26 36.3093 32.2812 38.0781C32.1297 38.1159 31.9781 38.1536 31.822 38.1925C26.8088 39.4884 22.4145 42.0031 18.6875 45.5781C18.495 45.7558 18.3026 45.9334 18.1043 46.1165C12.7985 51.1664 9.88435 58.4935 9.55243 65.7559C9.36605 73.383 11.8511 80.5537 16.8125 86.3594C16.9681 86.5491 17.1237 86.7388 17.284 86.9343C20.8347 91.1085 25.8295 93.8755 31.0215 95.4414C31.1752 95.488 31.329 95.5346 31.4874 95.5826C38.5735 97.6112 46.6286 96.6695 53.0926 93.1478C53.466 92.9367 53.8345 92.7172 54.2026 92.4971C54.7812 92.2188 54.7812 92.2188 55.4844 92.4531C55.6571 93.0388 55.7905 93.5996 55.9092 94.1963C56.2344 95.6702 56.6726 96.8354 57.5306 98.0974C57.8281 98.5469 57.8281 98.5469 58.0625 99.25C39.0359 99.25 20.0094 99.25 0.40625 99.25C0.40625 74.0359 0.40625 48.8219 0.40625 22.8438C7.75391 22.8438 15.1016 22.8438 22.6719 22.8438C22.6719 15.4961 22.6719 8.14844 22.6719 0.578125ZM27.5938 8.3125C27.5938 9.05929 27.6698 9.4963 28.1044 10.1068C28.7266 10.566 29.2027 10.5104 29.9709 10.5112C30.4229 10.5141 30.4229 10.5141 30.884 10.5172C31.2187 10.5158 31.5533 10.5144 31.888 10.5129C32.2398 10.5138 32.5917 10.5151 32.9436 10.5166C33.9 10.5198 34.8563 10.5186 35.8127 10.5163C36.8129 10.5145 37.8132 10.5162 38.8134 10.5173C40.4934 10.5186 42.1735 10.5169 43.8536 10.5135C45.7964 10.5097 47.7392 10.511 49.682 10.5148C51.3492 10.518 53.0164 10.5185 54.6837 10.5166C55.6798 10.5155 56.6759 10.5154 57.672 10.5177C58.6087 10.5197 59.5453 10.5183 60.482 10.5143C60.8259 10.5133 61.1698 10.5136 61.5137 10.5152C61.9829 10.5171 62.4521 10.5142 62.9213 10.5112C63.1839 10.5109 63.4466 10.5106 63.7172 10.5104C64.4682 10.4117 64.7854 10.2364 65.3281 9.71875C65.5848 9.2977 65.5848 9.2977 65.5625 8.78125C65.1886 7.77669 65.1886 7.77669 64.3906 7.14062C63.9241 7.1161 63.4568 7.10689 62.9897 7.10455C62.691 7.10254 62.3923 7.10052 62.0845 7.09845C61.7516 7.09741 61.4187 7.0964 61.0857 7.09542C60.7366 7.09357 60.3874 7.09163 60.0383 7.08961C58.8899 7.08347 57.7415 7.07988 56.5931 7.07654C56.198 7.07528 55.8029 7.07402 55.4078 7.07276C53.7646 7.06769 52.1213 7.0633 50.4781 7.06066C48.1218 7.05685 45.7656 7.04907 43.4093 7.03572C41.7532 7.02666 40.0972 7.02207 38.4411 7.02083C37.4516 7.01998 36.4623 7.01715 35.4728 7.00956C34.5419 7.00252 33.6111 7.00103 32.6801 7.00379C32.3386 7.00384 31.997 7.00189 31.6555 6.99778C31.189 6.99247 30.7224 6.9951 30.2559 6.99812C29.9948 6.99735 29.7338 6.99657 29.4649 6.99577C28.5343 7.18854 28.1757 7.57698 27.5938 8.3125ZM27.5938 15.5781C27.5938 16.3246 27.67 16.7617 28.1037 17.3725C28.7288 17.833 29.2102 17.776 29.9813 17.7768C30.285 17.7788 30.5886 17.7808 30.9015 17.7828C31.2387 17.7814 31.576 17.78 31.9132 17.7785C32.2678 17.7794 32.6223 17.7807 32.9769 17.7822C33.9405 17.7854 34.9041 17.7842 35.8678 17.7819C36.8753 17.7802 37.8828 17.7818 38.8903 17.7829C40.5824 17.7842 42.2745 17.7825 43.9666 17.7792C45.9241 17.7753 47.8815 17.7766 49.839 17.7805C51.5183 17.7836 53.1977 17.7841 54.877 17.7823C55.8806 17.7812 56.8842 17.781 57.8877 17.7833C58.8311 17.7854 59.7745 17.784 60.7179 17.7799C61.0646 17.779 61.4112 17.7792 61.7579 17.7808C62.2302 17.7827 62.7026 17.7799 63.1749 17.7768C63.5718 17.7764 63.5718 17.7764 63.9768 17.776C64.6281 17.7418 64.6281 17.7418 65.0544 17.3569C65.3995 16.8873 65.5289 16.6342 65.5625 16.0469C65.1886 15.0423 65.1886 15.0423 64.3906 14.4062C63.9241 14.3817 63.4568 14.3725 62.9897 14.3702C62.691 14.3682 62.3923 14.3661 62.0845 14.3641C61.7516 14.363 61.4187 14.362 61.0857 14.361C60.7366 14.3592 60.3874 14.3573 60.0383 14.3552C58.8899 14.3491 57.7415 14.3455 56.5931 14.3422C56.198 14.3409 55.8029 14.3396 55.4078 14.3384C53.7646 14.3333 52.1213 14.3289 50.4781 14.3263C48.1218 14.3225 45.7656 14.3147 43.4093 14.3013C41.7532 14.2923 40.0972 14.2877 38.4411 14.2865C37.4516 14.2856 36.4623 14.2828 35.4728 14.2752C34.5419 14.2681 33.6111 14.2667 32.6801 14.2694C32.3386 14.2695 31.997 14.2675 31.6555 14.2634C31.189 14.2581 30.7224 14.2607 30.2559 14.2638C29.9948 14.263 29.7338 14.2622 29.4649 14.2614C28.5343 14.4542 28.1757 14.8426 27.5938 15.5781ZM44 22.8438C43.8242 23.4399 43.8242 23.4399 44 24.0156C44.5665 24.744 44.9794 25.0331 45.875 25.1875C46.4516 25.2106 47.0214 25.2219 47.598 25.2215C47.77 25.2223 47.9419 25.2231 48.1191 25.2239C48.6867 25.2262 49.2543 25.2266 49.8218 25.2269C50.2171 25.2276 50.6123 25.2284 51.0075 25.2292C51.8355 25.2306 52.6636 25.2311 53.4917 25.2309C54.5519 25.2309 55.6122 25.2341 56.6724 25.2381C57.4886 25.2407 58.3047 25.2412 59.1208 25.2411C59.5117 25.2414 59.9026 25.2424 60.2934 25.2442C60.8404 25.2465 61.3873 25.2458 61.9342 25.2444C62.1755 25.2464 62.1755 25.2464 62.4217 25.2484C63.3359 25.2424 64.0454 25.1441 64.8594 24.7188C65.3468 24.2123 65.3468 24.2123 65.5625 23.5469C65.4482 22.7938 65.4482 22.7938 65.0938 22.1406C64.2286 21.5638 63.5666 21.601 62.5652 21.6001C62.3795 21.5981 62.1938 21.5962 62.0025 21.5942C61.388 21.5885 60.7736 21.5864 60.1591 21.5849C59.732 21.5828 59.3049 21.5807 58.8778 21.5785C57.9822 21.5746 57.0865 21.5728 56.1908 21.5721C55.0435 21.5709 53.8964 21.562 52.7491 21.5513C51.8669 21.5444 50.9846 21.5427 50.1023 21.5424C49.6794 21.5415 49.2564 21.5385 48.8335 21.5336C48.2415 21.5273 47.65 21.5285 47.058 21.5314C46.8836 21.5279 46.7092 21.5244 46.5295 21.5209C45.2866 21.5384 44.7547 21.8698 44 22.8438ZM44 30.1094C43.9018 30.9648 43.9018 30.9648 44.2344 31.75C45.2869 32.4345 46.2133 32.5539 47.4383 32.5404C47.6127 32.5412 47.787 32.5421 47.9666 32.543C48.5393 32.5449 49.1118 32.5417 49.6845 32.5383C50.0843 32.5381 50.4841 32.5383 50.8839 32.5386C51.7202 32.5386 52.5565 32.5362 53.3928 32.5319C54.4636 32.5266 55.5343 32.5265 56.6051 32.5281C57.43 32.5288 58.255 32.5273 59.08 32.525C59.4748 32.5241 59.8696 32.5238 60.2644 32.5242C60.8163 32.5243 61.3682 32.5213 61.9201 32.5175C62.0825 32.5181 62.2448 32.5187 62.412 32.5193C63.3281 32.5092 64.0436 32.4107 64.8594 31.9844C65.3468 31.478 65.3468 31.478 65.5625 30.8125C65.4482 30.0594 65.4482 30.0594 65.0938 29.4062C64.2286 28.8295 63.5666 28.8666 62.5652 28.8657C62.3795 28.8637 62.1938 28.8618 62.0025 28.8598C61.388 28.8541 60.7736 28.8521 60.1591 28.8505C59.732 28.8484 59.3049 28.8463 58.8778 28.8441C57.9822 28.8402 57.0865 28.8384 56.1908 28.8378C55.0435 28.8365 53.8964 28.8277 52.7491 28.817C51.8669 28.81 50.9846 28.8083 50.1023 28.8081C49.6794 28.8071 49.2564 28.8042 48.8335 28.7993C48.2415 28.793 47.65 28.7941 47.058 28.797C46.8836 28.7935 46.7092 28.7901 46.5295 28.7865C45.29 28.804 44.7382 29.1212 44 30.1094Z" fill="#9ACBD0" fill-opacity="0.8"/>
<path d="M38.4986 40.3926C45.9008 40.2145 52.527 43.0519 57.9174 48.025C62.1644 52.117 65.2818 58.3742 65.6003 64.3313C65.6872 70.8926 65.6872 70.8926 64.8594 73.7031C64.7796 73.9865 64.6999 74.2699 64.6177 74.5619C63.5696 77.9823 62.0029 81.0306 59.7032 83.7813C59.5134 84.0121 59.3237 84.2429 59.1282 84.4807C54.5471 89.775 48.1082 92.76 41.1875 93.3906C35.7867 93.7624 30.6347 92.5213 25.9532 89.875C25.7251 89.7475 25.4969 89.62 25.2619 89.4887C19.42 85.992 15.1808 80.1262 13.4791 73.553C13.419 73.2932 13.3589 73.0333 13.2969 72.7656C13.244 72.5396 13.1912 72.3137 13.1367 72.0808C11.8597 65.4226 13.2395 58.3434 16.8125 52.6094C18.9182 49.5094 21.5708 46.6057 24.7813 44.6406C24.9834 44.5074 25.1855 44.3742 25.3938 44.2369C29.3228 41.7642 33.9 40.62 38.4986 40.3926ZM24.5469 52.6094C24.275 52.8768 24.275 52.8768 23.9976 53.1495C20.4544 56.8505 18.7335 61.8372 18.5996 66.9063C18.7623 73.0643 21.3296 78.1805 25.7096 82.4519C29.5806 85.9655 34.8547 87.5872 40.0157 87.5313C44.6492 87.2733 48.8978 85.6172 52.4375 82.6094C52.6927 82.4091 52.6927 82.4091 52.953 82.2047C56.6028 79.211 58.9586 74.43 59.629 69.8094C60.1556 64.1731 58.9201 58.5679 55.2711 54.1044C52.3811 50.8147 49.3351 48.6215 45.1719 47.2188C44.9405 47.139 44.7091 47.0592 44.4706 46.9771C37.317 44.9277 29.7116 47.5285 24.5469 52.6094Z" fill="#EBEBF0"/>
<path d="M49.7202 53.2676C52.3789 55.5139 54.2297 58.0273 55.4844 61.2813C55.5972 61.5731 55.5972 61.5731 55.7123 61.8709C57.0476 66.119 56.3409 70.939 54.5322 74.9043C52.2458 79.2096 48.5539 82.033 43.9121 83.5029C39.3762 84.8252 34.5831 83.947 30.4685 81.8074C26.539 79.5133 23.7734 75.7528 22.547 71.3831C21.339 66.5631 22.2988 61.7407 24.7812 57.5313C25.279 56.7738 25.8141 56.0932 26.4219 55.4219C26.5551 55.2672 26.6883 55.1125 26.8256 54.9531C32.6415 48.631 43.0233 48.0775 49.7202 53.2676ZM31.3877 58.542C30.9076 58.8949 30.9076 58.8949 30.6406 59.1719C30.5066 60.2254 30.5362 60.6719 31.1785 61.5366C31.4223 61.7802 31.6705 62.0193 31.9224 62.2545C32.0524 62.3822 32.1825 62.5099 32.3165 62.6415C32.7307 63.0466 33.1503 63.4456 33.5703 63.8447C33.853 64.1192 34.1353 64.394 34.4172 64.6692C35.1073 65.3412 35.8022 66.0078 36.5 66.6719C36.13 67.5733 35.5563 68.1347 34.8658 68.8124C34.7525 68.9244 34.6393 69.0364 34.5227 69.1518C34.1624 69.5079 33.8005 69.8625 33.4385 70.2168C33.0758 70.573 32.7134 70.9296 32.3518 71.2868C32.0244 71.61 31.696 71.932 31.3675 72.254C30.7879 72.8561 30.6606 73.0815 30.5527 73.9082C30.5749 74.6734 30.5749 74.6734 31.1387 75.2119C31.9949 75.6772 32.2923 75.6162 33.2187 75.3438C33.7142 74.9341 34.1226 74.5503 34.5536 74.0822C34.6742 73.9571 34.7949 73.832 34.9192 73.7031C35.3026 73.3055 35.682 72.9042 36.0605 72.502C36.5607 71.9707 37.0646 71.4433 37.5712 70.9181C37.685 70.7946 37.7987 70.6711 37.916 70.5438C38.7032 69.7284 38.7032 69.7284 39.3157 69.6864C39.9949 70.0755 40.4637 70.5798 41.0026 71.147C41.2387 71.3909 41.4749 71.6347 41.7112 71.8785C42.0799 72.2632 42.4477 72.6489 42.8142 73.0358C43.1696 73.4098 43.5287 73.7799 43.8883 74.1499C44.1008 74.373 44.3133 74.5961 44.5323 74.826C45.25 75.407 45.6621 75.551 46.5781 75.5781C47.2789 75.2479 47.2789 75.2479 47.75 74.6406C47.9851 73.9789 47.9851 73.9789 47.75 73.2344C46.6464 71.7313 45.2191 70.4406 43.8975 69.1328C43.7036 68.9401 43.5098 68.7473 43.3101 68.5487C42.8375 68.0788 42.3643 67.6095 41.8906 67.1406C42.2575 66.2409 42.8245 65.704 43.5248 65.0413C43.7574 64.817 43.9897 64.5925 44.222 64.368C44.5867 64.0177 44.9524 63.6687 45.3207 63.3221C45.6775 62.9853 46.0296 62.6441 46.3813 62.3021C46.5931 62.1006 46.8049 61.8991 47.0231 61.6916C47.6191 60.9115 47.7127 60.3784 47.75 59.4063C47.4238 58.7175 47.1966 58.5278 46.4902 58.249C45.4395 58.224 44.8279 58.8233 44.0752 59.5122C43.8521 59.7354 43.6302 59.9598 43.4095 60.1854C43.2915 60.304 43.1735 60.4227 43.0519 60.5449C42.6783 60.9211 42.3064 61.2989 41.9346 61.6768C41.6803 61.9334 41.4259 62.1899 41.1715 62.4463C40.5506 63.0723 39.9311 63.6998 39.3125 64.3281C37.7622 63.0482 36.3824 61.6293 34.9962 60.1753C33.4583 58.4699 33.4583 58.4699 31.3877 58.542Z" fill="#FF453A" fill-opacity="0.8"/>
<path d="M62.2812 85.6562C62.8597 85.9262 63.23 86.1362 63.6875 86.5938C64.4261 86.667 65.1594 86.6826 65.9012 86.7018C67.8454 86.9966 69.0997 88.1191 70.4425 89.4812C70.615 89.6524 70.7875 89.8236 70.9652 90.0001C71.5312 90.5631 72.0936 91.1294 72.656 91.696C73.0503 92.0902 73.4447 92.4843 73.8393 92.8783C74.6643 93.7029 75.4875 94.5291 76.3096 95.3565C77.3618 96.4154 78.4176 97.4705 79.4746 98.5246C80.2891 99.3374 81.1018 100.152 81.9139 100.967C82.3026 101.357 82.6917 101.746 83.0813 102.135C83.6259 102.679 84.1683 103.225 84.7101 103.772C84.8703 103.931 85.0306 104.09 85.1957 104.254C86.6928 105.775 87.6074 107.198 87.667 109.372C87.6494 111.023 87.1692 112.217 86.1289 113.488C84.4888 114.83 83.2114 115.519 81.0312 115.422C79.7396 115.239 78.7595 114.855 77.7887 113.976C77.6268 113.829 77.4649 113.683 77.2982 113.532C76.5418 112.825 75.7998 112.106 75.0654 111.376C74.8204 111.134 74.8204 111.134 74.5704 110.887C74.0366 110.359 73.5036 109.83 72.9709 109.301C72.7877 109.119 72.6044 108.937 72.4155 108.749C71.4472 107.787 70.4797 106.824 69.5128 105.86C68.7151 105.066 67.9158 104.273 67.115 103.482C66.1437 102.522 65.1754 101.56 64.209 100.595C63.8418 100.229 63.4737 99.8647 63.1045 99.5012C62.5879 98.9921 62.0752 98.4793 61.5632 97.9656C61.4118 97.818 61.2603 97.6704 61.1042 97.5183C59.7225 96.1174 58.9075 94.5969 58.8682 92.5996C58.8457 91.5782 58.7712 91.2809 58.0625 90.5781C58.0914 89.9643 58.2274 89.7119 58.6558 89.2726C58.808 89.1523 58.9603 89.0321 59.1172 88.9082C60.2932 87.9303 61.2797 86.8085 62.2812 85.6562Z" fill="#006A71" fill-opacity="0.8"/>
<path d="M77.5156 7.84375C78.7531 7.84375 79.9906 7.84375 81.2656 7.84375C81.2656 36.8477 81.2656 65.8516 81.2656 95.7344C80.7242 95.2703 80.1828 94.8062 79.625 94.3281C79.3217 94.0919 79.3217 94.0919 79.0122 93.8509C77.8661 92.8768 77.3815 92.1568 77.256 90.6415C77.2472 90.0125 77.2496 89.3902 77.2619 88.7619C77.261 88.412 77.2592 88.0622 77.2565 87.7123C77.2518 86.7549 77.2602 85.798 77.2708 84.8406C77.2799 83.8068 77.2768 82.773 77.2752 81.7392C77.2741 79.9493 77.2807 78.1596 77.2926 76.3698C77.3097 73.7821 77.3152 71.1945 77.3179 68.6067C77.3225 64.408 77.3365 60.2094 77.3565 56.0107C77.3758 51.9327 77.3908 47.8548 77.3997 43.7768C77.4003 43.5253 77.4008 43.2738 77.4014 43.0147C77.4042 41.7531 77.4068 40.4915 77.4094 39.2299C77.4313 28.7678 77.4686 18.3058 77.5156 7.84375Z" fill="#48A6A7" fill-opacity="0.8"/>
<path d="M7.67188 102.531C14.5091 102.451 21.3463 102.389 28.1839 102.352C28.9927 102.347 29.8014 102.343 30.6101 102.338C30.7711 102.337 30.9321 102.336 31.098 102.335C33.6988 102.32 36.2993 102.292 38.8999 102.26C41.572 102.227 44.2438 102.208 46.9161 102.2C48.4157 102.196 49.9147 102.185 51.4142 102.16C52.8277 102.136 54.2405 102.128 55.6542 102.134C56.1709 102.133 56.6877 102.126 57.2043 102.112C59.6683 102.051 61.5517 102.053 63.4325 103.794C65.3281 105.759 65.3281 105.759 65.3281 106.516C46.3016 106.516 27.275 106.516 7.67188 106.516C7.67188 105.201 7.67188 103.886 7.67188 102.531Z" fill="#48A6A7" fill-opacity="0.8"/>
<path d="M19.1562 0.8125C19.1562 7 19.1562 13.1875 19.1562 19.5625C12.9688 19.5625 6.78125 19.5625 0.40625 19.5625C0.794776 18.7854 1.0208 18.4205 1.60445 17.836C1.75429 17.6849 1.90413 17.5337 2.05852 17.378C2.22266 17.2148 2.3868 17.0516 2.55591 16.8834C2.81548 16.6226 2.81548 16.6226 3.08031 16.3566C3.65262 15.7822 4.22664 15.2095 4.80078 14.637C5.19842 14.239 5.59598 13.841 5.99348 13.4429C6.82654 12.6092 7.66044 11.7763 8.49493 10.944C9.56688 9.87468 10.6367 8.80332 11.7059 7.73131C12.5262 6.90935 13.3476 6.0885 14.1693 5.26799C14.5644 4.87322 14.9591 4.47811 15.3535 4.08265C15.9034 3.53154 16.4548 2.98195 17.0066 2.43275C17.1707 2.26767 17.3349 2.10258 17.504 1.93249C17.6538 1.78397 17.8037 1.63545 17.9581 1.48242C18.0884 1.35228 18.2187 1.22215 18.3529 1.08807C18.6875 0.8125 18.6875 0.8125 19.1562 0.8125Z" fill="#48A6A7" fill-opacity="0.8"/>
</g>
<defs>
<clipPath id="clip0_55_59">
<rect width="88" height="116" fill="white"/>
</clipPath>
</defs>
</svg>
