<svg width="120" height="112" viewBox="0 0 120 112" fill="none" xmlns="http://www.w3.org/2000/svg">
<path d="M74.1788 36.5654C74.4144 36.6384 74.6499 36.7114 74.8927 36.7866C75.4009 36.9445 75.9087 37.1037 76.416 37.264C77.5039 37.6079 78.5939 37.9454 79.6839 38.2834C80.2497 38.459 80.8155 38.6349 81.3811 38.8111C83.9709 39.6174 86.5694 40.3967 89.171 41.169C90.3746 41.5265 91.5775 41.886 92.7805 42.2452C94.2176 42.6743 95.655 43.1028 97.0929 43.5296C98.2763 43.881 99.4589 44.2345 100.641 44.5893C101.081 44.7209 101.521 44.8518 101.961 44.9819C102.566 45.1607 103.17 45.342 103.773 45.5239C103.949 45.5753 104.125 45.6266 104.306 45.6795C105.875 46.1577 107.104 46.8213 108.047 48.125C108.421 48.9984 108.483 50.0534 108.112 50.9337C107.523 52.008 106.862 53.0079 106.131 54.0022C106.016 54.1596 105.902 54.317 105.784 54.4792C105.421 54.9777 105.057 55.4752 104.692 55.9727C104.451 56.3044 104.209 56.6362 103.968 56.9681C103.732 57.292 103.496 57.6158 103.26 57.9397C103.146 58.0964 103.032 58.253 102.915 58.4145C102.159 59.4503 101.376 60.4626 100.552 61.4526C100.229 62.0638 100.354 62.3502 100.547 63C100.817 63.483 100.817 63.483 101.171 63.9494C101.302 64.1299 101.433 64.3104 101.568 64.4963C101.781 64.7852 101.781 64.7852 101.999 65.0798C102.146 65.2814 102.292 65.4829 102.443 65.6905C102.913 66.3352 103.385 66.9782 103.857 67.6211C104.324 68.2596 104.791 68.8985 105.257 69.5376C105.546 69.9346 105.837 70.3313 106.128 70.7276C109.456 75.2717 109.456 75.2717 109.219 77.6562C108.989 78.4876 108.599 79.0017 107.815 79.4603C106.223 80.2002 104.602 80.7334 102.905 81.2246C102.511 81.3424 102.511 81.3424 102.108 81.4626C100.176 82.0313 100.176 82.0313 99.375 82.0313C99.3771 82.2055 99.3792 82.3797 99.3813 82.5593C99.4002 84.2069 99.4144 85.8545 99.4236 87.5023C99.4285 88.3492 99.4351 89.1961 99.4457 90.0431C99.456 90.8615 99.4615 91.6798 99.464 92.4983C99.4657 92.8094 99.469 93.1206 99.4741 93.4317C99.5289 96.9249 99.5289 96.9249 98.0487 98.383C96.8899 99.3774 95.8457 99.8797 94.3444 100.291C94.1317 100.353 93.9189 100.415 93.6997 100.479C93.0147 100.678 92.3279 100.871 91.6406 101.063C91.1852 101.193 90.7299 101.324 90.2747 101.455C88.8121 101.873 87.3463 102.282 85.8801 102.689C85.3389 102.84 84.7977 102.992 84.2566 103.143C83.1301 103.457 82.0034 103.771 80.8767 104.085C79.4502 104.482 78.0241 104.88 76.5981 105.278C75.4825 105.59 74.3668 105.901 73.251 106.212C72.726 106.358 72.2009 106.504 71.6759 106.651C70.218 107.058 68.7587 107.461 67.2981 107.86C66.5253 108.073 65.7547 108.292 64.9839 108.512C64.4647 108.656 63.9455 108.8 63.4261 108.943C63.191 109.012 62.9558 109.081 62.7135 109.151C60.1789 109.841 58.0751 109.439 55.5996 108.726C55.3613 108.659 55.123 108.593 54.8775 108.524C54.0944 108.305 53.3123 108.082 52.5302 107.859C51.9762 107.703 51.422 107.547 50.8679 107.392C49.4074 106.981 47.9479 106.568 46.4886 106.154C45.0342 105.742 43.579 105.333 42.1239 104.923C39.6198 104.218 37.1169 103.509 34.6145 102.799C33.1818 102.392 31.7481 101.989 30.3127 101.591C29.5171 101.37 28.722 101.148 27.927 100.925C27.5711 100.826 27.2151 100.727 26.8588 100.63C26.3796 100.499 25.9014 100.365 25.4232 100.23C25.1615 100.158 24.8997 100.085 24.6301 100.011C23.4821 99.5972 22.5307 99.0028 21.7383 98.1231C21.6259 98.0015 21.5135 97.88 21.3977 97.7548C20.6938 96.803 20.567 95.9631 20.5718 94.8206C20.5718 94.536 20.5719 94.2514 20.5719 93.9582C20.5743 93.6498 20.5767 93.3413 20.5792 93.0328C20.5801 92.7156 20.5808 92.3984 20.5812 92.0812C20.583 91.2486 20.5876 90.4161 20.5928 89.5836C20.5976 88.7331 20.5998 87.8827 20.6021 87.0322C20.6071 85.3652 20.6151 83.6982 20.625 82.0313C20.4888 82.0042 20.3527 81.9772 20.2123 81.9494C18.6581 81.6353 17.168 81.2146 15.6592 80.7461C15.4122 80.6719 15.1652 80.5978 14.9107 80.5214C11.9943 79.6192 11.9943 79.6192 11.0449 78.4082C10.5779 77.0764 10.4789 75.905 11.0834 74.5955C11.7327 73.5301 12.4741 72.557 13.2504 71.5706C14.4184 70.0778 15.5269 68.549 16.6284 67.0131C16.8633 66.6864 17.0989 66.3602 17.3355 66.0345C17.6816 65.5579 18.0252 65.0798 18.3682 64.6013C18.4739 64.4566 18.5796 64.3119 18.6885 64.1628C19.4417 63.1159 19.4417 63.1159 19.6875 61.9062C19.4423 61.3888 19.4423 61.3888 19.0302 60.8988C18.8805 60.7043 18.7308 60.5098 18.5766 60.3094C18.4114 60.101 18.2463 59.8925 18.0762 59.6777C17.7315 59.2296 17.3876 58.781 17.0444 58.3319C16.9548 58.2152 16.8652 58.0985 16.7728 57.9782C15.8102 56.7198 14.8966 55.4322 13.9911 54.1374C13.7285 53.7619 13.4646 53.3872 13.2007 53.0125C13.0406 52.7836 12.8806 52.5547 12.7158 52.3188C12.503 52.0146 12.503 52.0146 12.286 51.7043C11.6938 50.7849 11.6431 50.0588 11.7188 49C12.1238 47.7817 12.7159 47.0868 13.8281 46.375C14.5764 46.0654 14.5764 46.0654 15.3992 45.817C15.5527 45.7697 15.7063 45.7225 15.8645 45.6738C16.3761 45.5171 16.8891 45.3649 17.4024 45.2129C17.767 45.1028 18.1316 44.9925 18.4961 44.882C19.301 44.6386 20.1065 44.3973 20.9124 44.1567C22.1348 43.7908 23.3538 43.4159 24.5725 43.0395C25.6347 42.712 26.6979 42.3874 27.7612 42.0633C28.2855 41.9031 28.8094 41.7418 29.333 41.5796C30.0734 41.3506 30.8151 41.1258 31.5573 40.902C31.889 40.7979 31.889 40.7979 32.2274 40.6918C33.4707 40.3221 34.3516 40.1554 35.625 40.4687C36.1494 40.8635 36.2895 41.1465 36.4096 41.7599C36.477 42.6258 36.477 42.6258 36.3281 43.0937C35.4689 43.8419 34.6612 44.1838 33.5504 44.5207C33.392 44.5695 33.2336 44.6183 33.0704 44.6685C32.5457 44.8295 32.02 44.987 31.4942 45.1445C31.1248 45.2569 30.7556 45.3695 30.3864 45.4823C29.5921 45.7245 28.7973 45.9653 28.0022 46.2052C26.8823 46.5435 25.7639 46.8863 24.646 47.2304C23.7223 47.5147 22.7982 47.7981 21.874 48.0813C21.4226 48.2197 20.9712 48.3583 20.5199 48.4972C19.8861 48.692 19.2517 48.8855 18.6173 49.0786C18.4272 49.1373 18.2372 49.1959 18.0413 49.2564C17.3152 49.4763 16.7061 49.6562 15.9375 49.6562C16.5667 50.5424 17.1979 51.4271 17.8317 52.3103C18.4246 53.1366 19.0126 53.9656 19.5975 54.7968C19.9947 55.3598 20.3946 55.9211 20.7951 56.4821C20.9943 56.7624 21.1924 57.0434 21.3893 57.3251C21.6687 57.7244 21.952 58.1211 22.2363 58.5173C22.4001 58.7489 22.5638 58.9804 22.7326 59.219C22.8878 59.3839 23.0431 59.5488 23.2031 59.7187C24.012 59.7187 24.4454 59.6624 25.1889 59.4391C25.3965 59.3774 25.6041 59.3157 25.818 59.2522C26.1551 59.1498 26.1551 59.1498 26.499 59.0454C26.7353 58.9747 26.9715 58.9041 27.2149 58.8313C27.9875 58.5997 28.7594 58.3663 29.5313 58.1328C30.061 57.9735 30.5907 57.8143 31.1205 57.6551C35.5229 56.3301 39.9142 54.9745 44.2969 53.5937C44.1866 53.4804 44.0763 53.3671 43.9627 53.2503C41.5048 50.685 41.5048 50.685 41.4697 48.918C41.774 48.2164 41.9764 47.8918 42.6563 47.4687C43.8145 47.2972 43.8145 47.2972 44.5313 47.4687C45.0633 47.918 45.3341 48.228 45.7031 48.7812C45.8297 48.9555 45.9563 49.1298 46.0867 49.3093C47.3307 51.1009 47.3307 51.1009 47.1094 52.2812C47.032 52.4256 46.9547 52.57 46.875 52.7187C49.0462 52.1936 51.1711 51.5548 53.3004 50.8988C53.734 50.7655 54.168 50.6334 54.6021 50.5013C54.8569 50.423 55.1117 50.3447 55.3743 50.2641C56.0156 50.0937 56.0156 50.0937 56.7188 50.0937C55.7091 48.5689 54.643 47.0859 53.5547 45.6094C53.1634 45.076 52.7724 44.5423 52.3816 44.0086C52.1662 43.7152 51.9503 43.4222 51.7331 43.13C51.4926 42.8054 51.2563 42.478 51.0205 42.1504C50.8957 41.9798 50.771 41.8092 50.6424 41.6334C50.322 40.9863 50.3189 40.5179 50.3906 39.8125C50.8243 39.1379 51.1082 38.7977 51.8994 38.5137C52.6212 38.4972 53.024 38.6435 53.6719 38.9375C55.0264 40.178 56.0113 41.8621 57.052 43.339C57.8045 44.4035 58.5949 45.4425 59.3866 46.4818C59.7656 47.0312 59.7656 47.0312 59.7656 47.4687C59.9203 47.4687 60.075 47.4687 60.2344 47.4687C60.2977 47.3078 60.361 47.1469 60.4262 46.9812C60.6929 46.3974 60.9898 45.9412 61.3843 45.4265C61.5189 45.2494 61.6534 45.0722 61.7921 44.8897C61.9355 44.7031 62.0789 44.5165 62.2266 44.3242C63.2598 42.9654 64.2792 41.602 65.2588 40.209C67.8305 36.5743 69.5042 35.0629 74.1788 36.5654ZM70.5469 39.5937C70.1306 40.1284 69.7429 40.6653 69.3604 41.2207C69.1096 41.5792 68.8584 41.9375 68.6069 42.2957C68.4692 42.492 68.3314 42.6883 68.1895 42.8906C67.6933 43.5891 67.1875 44.2813 66.6788 44.9719C66.5891 45.0939 66.4994 45.2158 66.4071 45.3415C65.961 45.9479 65.514 46.5536 65.0656 47.1585C64.8195 47.4935 64.8195 47.4935 64.5685 47.8353C64.4219 48.0336 64.2754 48.232 64.1243 48.4363C63.7646 48.978 63.5258 49.5008 63.2813 50.0937C63.4284 50.1379 63.5756 50.182 63.7273 50.2275C65.6736 50.8111 67.6196 51.3956 69.5654 51.9805C69.7251 52.0284 69.8847 52.0764 70.0492 52.1258C74.0893 53.3401 78.1268 54.5617 82.1585 55.8C82.3358 55.8545 82.5131 55.9089 82.6958 55.965C84.426 56.4963 86.1559 57.0284 87.8852 57.5622C88.5288 57.7608 89.1726 57.9589 89.8164 58.1569C90.2514 58.2908 90.6861 58.4255 91.1209 58.5601C93.0007 59.138 94.8905 59.6611 96.7969 60.1562C96.9387 59.9571 97.0805 59.7579 97.2266 59.5528C97.7021 58.8853 98.1777 58.2179 98.6536 57.5507C98.8702 57.247 99.0867 56.9433 99.3032 56.6396C100.643 54.7609 101.984 52.8844 103.383 51.0439C103.902 50.4112 103.902 50.4112 104.063 49.6562C101.455 48.8533 98.8479 48.0513 96.2402 47.25C96.0464 47.1904 95.8526 47.1309 95.653 47.0695C90.078 45.3567 84.4988 43.6581 78.9048 42C78.4727 41.8718 78.0405 41.7437 77.6083 41.6155C77.4069 41.5558 77.2055 41.4962 76.998 41.4347C75.4258 40.9675 73.8603 40.4824 72.2992 39.9838C71.4424 39.6952 71.4424 39.6952 70.5469 39.5937ZM60 52.9375C60 59.1456 60 65.3537 60 71.75C67.1298 69.6522 67.1298 69.6522 74.2396 67.4996C79.7148 65.8162 85.2038 64.1757 90.7031 62.5625C90.7031 62.4181 90.7031 62.2737 90.7031 62.125C88.5647 61.468 86.426 60.8118 84.2871 60.1562C84.1267 60.1071 83.9663 60.0579 83.8011 60.0073C78.7081 58.4466 73.6093 56.9043 68.5008 55.3882C68.054 55.2555 67.6072 55.1227 67.1603 54.99C66.9501 54.9276 66.7399 54.8652 66.5233 54.8009C64.9243 54.3248 63.3315 53.8321 61.7435 53.3247C60.891 53.038 60.891 53.038 60 52.9375ZM23.2031 64.5312C22.9052 64.8579 22.9052 64.8579 22.6126 65.2977C22.4912 65.4703 22.3698 65.6429 22.2447 65.8208C22.1114 66.0133 21.9781 66.2059 21.8408 66.4043C21.5486 66.8213 21.2559 67.2379 20.9628 67.6544C20.8 67.8859 20.6372 68.1174 20.4695 68.3558C19.86 69.2162 19.2352 70.0665 18.6099 70.9169C18.3839 71.225 18.1578 71.5332 17.9318 71.8414C17.5943 72.3015 17.2562 72.7612 16.9166 73.2201C16.5967 73.6525 16.2788 74.0863 15.9613 74.5203C15.8641 74.6506 15.7668 74.781 15.6666 74.9154C15.1144 75.6677 15.1144 75.6677 15 76.5625C24.148 79.3785 33.2994 82.1818 42.4805 84.9027C43.6623 85.253 44.8438 85.6041 46.0254 85.9551C46.4618 86.0847 46.8982 86.2143 47.3346 86.3439C47.6502 86.4376 47.9657 86.5313 48.2813 86.625C48.4286 86.4215 48.5759 86.2179 48.7278 86.0082C49.289 85.233 49.8504 84.4579 50.4118 83.6829C50.6606 83.3394 50.9093 82.9958 51.158 82.6523C53.5623 79.3308 53.5623 79.3308 54.7083 77.7836C54.851 77.5908 54.9937 77.398 55.1407 77.1994C55.3957 76.8558 55.6517 76.5128 55.9087 76.1704C56.5091 75.4495 56.5091 75.4495 56.7188 74.5937C53.9945 73.7543 51.2698 72.9159 48.5449 72.0781C48.3429 72.016 48.1408 71.9539 47.9327 71.8899C42.2165 70.1327 36.4963 68.389 30.7605 66.6884C30.5429 66.6239 30.3252 66.5593 30.101 66.4928C29.6893 66.3708 29.2775 66.2488 28.8657 66.1269C27.3415 65.6745 25.8253 65.202 24.3121 64.7186C23.7092 64.5094 23.7092 64.5094 23.2031 64.5312ZM95.0194 64.9175C94.7424 65.0027 94.4655 65.0878 94.1801 65.1756C93.8732 65.2707 93.5662 65.3658 93.2593 65.4609C92.9398 65.5594 92.6203 65.6577 92.3008 65.756C91.6172 65.9665 90.9337 66.1772 90.2504 66.3883C88.4546 66.9428 86.6579 67.4948 84.8612 68.0466C84.5905 68.1298 84.5905 68.1298 84.3144 68.2146C80.474 69.3939 76.6251 70.5478 72.7716 71.6893C69.5983 72.6303 66.4375 73.6039 63.2813 74.5937C63.6587 75.5184 64.1497 76.2785 64.7608 77.082C65.7096 78.3476 66.6445 79.6212 67.5687 80.9025C67.678 81.0539 67.7874 81.2054 67.9001 81.3615C68.3473 81.9808 68.7944 82.6002 69.2402 83.2204C69.5579 83.6621 69.8765 84.1033 70.1953 84.5443C70.2912 84.6782 70.387 84.812 70.4858 84.9499C70.932 85.5657 71.3799 86.1104 71.9531 86.625C72.115 86.5752 72.2769 86.5254 72.4437 86.4742C74.5358 85.831 76.6282 85.1887 78.7207 84.5469C78.9743 84.4691 78.9743 84.4691 79.233 84.3897C84.1756 82.8739 89.1234 81.3751 94.0806 79.9013C97.7306 78.816 101.373 77.7123 105 76.5625C104.789 75.6274 104.282 74.9415 103.714 74.1614C103.607 74.0128 103.5 73.8643 103.391 73.7112C103.045 73.2298 102.697 72.7497 102.349 72.2695C102.112 71.9414 101.875 71.6131 101.639 71.2848C101.288 70.7971 100.936 70.3094 100.584 69.8221C99.9355 68.924 99.2927 68.0229 98.6581 67.1161C98.4632 66.8382 98.4632 66.8382 98.2643 66.5548C98.0339 66.2256 97.8046 65.8957 97.5766 65.5651C97.3287 65.2128 97.0648 64.8705 96.7969 64.5312C96.1492 64.5312 95.6351 64.7273 95.0194 64.9175ZM59.5313 77.4375C59.2129 77.8551 58.9077 78.2755 58.6066 78.7039C58.5123 78.8366 58.4181 78.9694 58.321 79.1061C58.1173 79.3932 57.9139 79.6804 57.7108 79.9679C57.2856 80.5694 56.858 81.1694 56.4305 81.7695C56.107 82.2238 55.7836 82.6783 55.4604 83.1328C55.3565 83.2789 55.2526 83.4249 55.1456 83.5754C54.9519 83.8479 54.7583 84.1204 54.5648 84.393C54.0063 85.1798 53.4445 85.9644 52.8809 86.748C52.7434 86.9427 52.6059 87.1373 52.4642 87.3378C51.587 88.5517 50.763 89.6446 49.2188 90.125C47.5001 90.2635 46.1091 89.8215 44.4919 89.3081C44.2159 89.2228 43.94 89.1376 43.6557 89.0497C43.0654 88.867 42.4756 88.6834 41.8863 88.4981C40.968 88.2094 40.0485 87.9243 39.1287 87.6399C37.9059 87.2614 36.6836 86.8817 35.4616 86.501C33.364 85.8479 31.2636 85.2029 29.1608 84.5645C28.6181 84.3994 28.076 84.233 27.5339 84.0664C27.2112 83.9682 26.8886 83.87 26.5659 83.7719C26.2928 83.6883 26.0197 83.6048 25.7383 83.5188C25.0798 83.3139 25.0798 83.3139 24.375 83.3438C24.3572 84.9397 24.3449 86.5356 24.3364 88.1316C24.3329 88.6743 24.3281 89.2171 24.322 89.7598C24.3134 90.5407 24.3094 91.3214 24.3063 92.1023C24.3027 92.3443 24.2991 92.5864 24.2954 92.8358C24.2525 94.5597 24.2525 94.5597 25.0781 96.0313C25.617 96.2646 25.617 96.2646 26.2444 96.4583C26.5925 96.5713 26.5925 96.5713 26.9476 96.6865C28.0032 97.0138 29.0635 97.3226 30.1291 97.6204C30.3616 97.686 30.5942 97.7516 30.8337 97.8192C31.5957 98.0339 32.3579 98.2477 33.1201 98.4614C33.6583 98.6129 34.1965 98.7644 34.7346 98.9159C36.1499 99.3143 37.5654 99.7119 38.981 100.109C40.1196 100.429 41.2579 100.749 42.3962 101.07C43.7768 101.458 45.1574 101.847 46.5381 102.235C46.7924 102.306 47.0467 102.378 47.3088 102.452C48.7812 102.866 50.254 103.278 51.7271 103.69C52.5671 103.925 53.4064 104.162 54.2458 104.4C54.8232 104.562 55.4007 104.724 55.9781 104.886C56.249 104.963 56.52 105.04 56.7991 105.119C57.0508 105.189 57.3026 105.26 57.5619 105.332C57.7842 105.395 58.0064 105.458 58.2354 105.522C58.8783 105.691 58.8783 105.691 59.7656 105.656C59.7656 96.3441 59.7656 87.0319 59.7656 77.4375C59.6883 77.4375 59.6109 77.4375 59.5313 77.4375Z" fill="#D1D1D6"/>
<path d="M69.8437 4.8125C70.3864 5.19233 70.5306 5.42437 70.7519 6.0293C70.8319 8.08138 69.7432 9.58701 68.4375 11.1562C68.6466 11.1751 68.8556 11.194 69.071 11.2135C69.3454 11.2442 69.6197 11.275 69.9023 11.3066C70.3102 11.3485 70.3102 11.3485 70.7263 11.3912C71.6569 11.6399 71.9349 11.9169 72.4219 12.6875C72.4951 13.1541 72.4951 13.1541 72.4219 13.5898C72.4025 13.7348 72.3832 13.8797 72.3633 14.0291C72.1113 14.6144 71.8444 14.7952 71.25 15.0937C70.4919 15.1578 70.4919 15.1578 69.668 15.1348C69.3936 15.1288 69.1193 15.1229 68.8367 15.1168C68.6276 15.1092 68.4185 15.1016 68.2031 15.0937C68.3134 15.2364 68.4237 15.3791 68.5373 15.5261C69.9388 17.3623 70.889 18.6727 70.5469 21C70.0041 21.9194 69.481 22.2066 68.4375 22.5313C65.5777 22.8601 63.3011 22.0171 61.0574 20.401C59.7042 19.2637 58.9041 18.0324 58.3594 16.4199C58.1021 15.6131 58.1021 15.6131 57.486 15.0459C57.0793 14.9022 56.6648 14.7781 56.25 14.6562C55.7169 14.0758 55.7815 13.7762 55.8252 13.002C56.0895 11.9583 56.0895 11.9583 56.7187 11.5937C57.4658 11.4434 57.4658 11.4434 58.125 11.375C58.1467 11.0569 58.1467 11.0569 58.1689 10.7324C58.4874 8.71277 60.0874 6.88341 61.7926 5.69092C64.0766 4.27751 67.3679 3.15604 69.8437 4.8125Z" fill="#D1D1D6"/>
<path d="M79.3515 12.0731C80.8426 12.8529 82.19 13.8588 82.9688 15.3125C83.063 16.1038 83.0159 16.537 82.6319 17.2539C81.8863 17.8309 81.4454 17.9283 80.4895 17.8845C79.5319 17.6048 79.0143 16.928 78.3618 16.2439C77.6328 15.5884 76.908 15.3374 75.9531 15.0613C75.4688 14.875 75.4688 14.875 75 14.2187C74.8417 12.6674 74.8417 12.6674 75.4248 11.9355C76.7301 11.0654 77.9907 11.4835 79.3515 12.0731Z" fill="#D1D1D6"/>
<path d="M84.375 19.6875C84.9361 20.4731 84.9339 21.0608 84.9316 21.9707C84.9312 22.126 84.9309 22.2813 84.9305 22.4413C84.8909 24.0517 84.6087 25.7218 83.4393 26.9652C82.8629 27.4289 82.558 27.5456 81.7969 27.5625C81.0615 27.3068 80.5554 27.0934 80.0537 26.5234C79.8074 25.6041 80.0572 24.7621 80.3888 23.8848C80.7099 22.9367 80.8004 21.9908 80.9161 21.0051C81.1225 20.2365 81.3702 19.9537 82.0312 19.4688C82.9676 19.1774 83.4606 19.3772 84.375 19.6875Z" fill="#D1D1D6"/>
<path d="M77.7686 27.9453C78.3818 27.9576 78.7469 27.9988 79.3213 28.2188C79.7914 28.7803 79.8785 29.2457 79.9951 29.9397C79.8817 30.6621 79.5279 30.9837 78.9844 31.5C78.4451 31.8026 77.9389 32.0605 77.373 32.3066C77.2326 32.3711 77.0921 32.4355 76.9473 32.5019C75.6341 33.0935 74.3694 33.6449 72.8906 33.4688C72.2168 33.1543 72.2168 33.1543 71.7188 32.5938C71.5518 31.9087 71.5021 31.3007 71.7188 30.625C72.606 29.7857 73.6766 29.3855 74.8242 28.9434C77.2973 27.9742 77.2973 27.9742 77.7686 27.9453Z" fill="#D1D1D6"/>
<path d="M65.874 30.707C66.1515 30.7028 66.429 30.6986 66.7149 30.6942C66.9816 30.6956 67.2482 30.697 67.5229 30.6985C67.7658 30.6997 68.0087 30.701 68.259 30.7022C69.1319 30.8931 69.3753 31.2415 69.8437 31.9375C69.9943 32.7804 69.9207 33.1303 69.4482 33.8652C68.3515 34.8335 66.7056 34.6171 65.2734 34.6309C64.944 34.6404 64.944 34.6404 64.6078 34.6501C63.5931 34.6588 62.9777 34.6502 62.0819 34.1746C61.5558 33.5938 61.501 33.1494 61.485 32.3964C62.1482 30.441 64.0505 30.6791 65.874 30.707Z" fill="#D1D1D6"/>
<path d="M56.0697 30.5763C57.0211 30.5312 57.6078 30.7448 58.3594 31.2812C58.7272 31.9678 58.6763 32.4928 58.5938 33.25C57.9538 34.0661 57.4225 34.4045 56.3745 34.5693C55.982 34.6086 55.5889 34.6426 55.1953 34.6719C54.998 34.6933 54.8008 34.7147 54.5975 34.7368C53.4504 34.838 52.7284 34.8427 51.7969 34.125C51.3449 33.5689 51.326 33.2974 51.3574 32.5937C51.5993 31.8199 51.8324 31.5659 52.5 31.0625C53.6642 30.7614 54.8698 30.6881 56.0697 30.5763Z" fill="#D1D1D6"/>
<path d="M43.3594 39.1562C43.9453 39.4707 43.9453 39.4707 44.2969 40.0312C44.3953 40.6966 44.353 41.3321 44.2969 42C44.2893 42.174 44.2818 42.348 44.274 42.5272C44.2165 43.3513 44.1079 43.8906 43.6816 44.625C42.9379 45.2095 42.4505 45.2812 41.4844 45.2812C40.7935 44.9869 40.4197 44.825 40.0781 44.1875C39.9414 42.6147 39.9539 41.011 40.7813 39.5937C41.6478 39.0545 42.354 39.0109 43.3594 39.1562Z" fill="#D1D1D6"/>
<path d="M48.5157 33.25C49.1941 33.6299 49.2219 33.9175 49.4239 34.6445C49.4576 35.5587 49.3099 35.8024 48.75 36.5313C47.7876 37.3561 46.7272 38.1516 45.3809 38.2129C44.5313 38.0625 44.5313 38.0625 43.9453 37.7344C43.4546 36.971 43.3885 36.2913 43.5938 35.4375C44.0479 34.8633 44.0479 34.8633 44.7657 34.3438C44.9273 34.2231 45.0889 34.1024 45.2555 33.978C46.3868 33.1911 47.0924 32.7984 48.5157 33.25Z" fill="#D1D1D6"/>
</svg>
