<svg width="120" height="120" viewBox="0 0 120 120" fill="none" xmlns="http://www.w3.org/2000/svg">
<path d="M63.75 16.875C63.9884 16.9907 64.2268 17.1064 64.4724 17.2256C67.4615 18.7705 70.0127 20.88 72.4219 23.2031C72.6044 23.3708 72.7869 23.5385 72.9749 23.7112C79.2186 29.6118 82.4725 38.5701 82.7637 47.0224C82.8469 52.3411 82.0552 58.3548 79.2984 62.9993C78.8662 64.0326 78.8893 64.9414 78.9111 66.0498C78.9131 66.2644 78.9151 66.4789 78.9171 66.7C78.9518 68.7047 79.1622 70.6742 79.4531 72.6563C79.6797 72.6454 79.9063 72.6345 80.1398 72.6233C83.3945 72.5331 85.4071 73.356 87.7926 75.5587C88.4995 76.2446 89.199 76.9373 89.8961 77.6331C90.1641 77.8989 90.4323 78.1647 90.7005 78.4304C91.424 79.1478 92.146 79.8668 92.8676 80.5862C93.3187 81.036 93.7701 81.4855 94.2216 81.9349C95.6353 83.3421 97.048 84.7503 98.4594 86.1599C100.087 87.7854 101.718 89.4078 103.351 91.0276C104.615 92.282 105.877 93.539 107.137 94.7981C107.889 95.5494 108.642 96.2995 109.397 97.0468C110.107 97.7486 110.813 98.4537 111.517 99.1614C111.775 99.4205 112.035 99.6785 112.297 99.9352C112.653 100.286 113.005 100.64 113.355 100.996C113.554 101.193 113.752 101.39 113.956 101.594C114.472 102.324 114.48 102.717 114.375 103.594C113.5 105.766 111.898 107.441 110.283 109.085C109.935 109.44 109.592 109.8 109.25 110.161C107.562 111.909 105.377 114.097 102.891 114.609C101.872 114.309 101.289 113.8 100.545 113.056C100.433 112.945 100.32 112.834 100.205 112.719C99.8306 112.348 99.4588 111.974 99.0871 111.6C98.8188 111.333 98.5503 111.065 98.2818 110.798C97.5533 110.073 96.827 109.346 96.1013 108.618C95.3406 107.855 94.5782 107.094 93.816 106.333C92.5357 105.054 91.2569 103.774 89.9788 102.492C88.5036 101.013 87.0258 99.5367 85.5467 98.0615C84.2754 96.7935 83.0056 95.5241 81.7369 94.2535C80.9798 93.4953 80.2222 92.7376 79.4634 91.9811C78.7492 91.269 78.0368 90.5551 77.3257 89.84C77.0653 89.5786 76.8043 89.3179 76.5426 89.0577C74.1452 86.6733 72.3879 84.459 72.3779 80.9326C72.389 80.5956 72.4022 80.2585 72.4219 79.9219C70.043 78.8556 66.0385 78.3539 63.5146 79.1286C62.7136 79.4392 61.945 79.8091 61.1728 80.1846C53.7759 83.7666 44.2795 83.6086 36.612 81.0736C31.3722 79.2176 26.8818 76.344 22.9688 72.4219C22.7503 72.2062 22.5319 71.9904 22.3068 71.7682C15.6264 64.8495 12.9703 55.7334 13.0756 46.3083C13.1182 44.1762 13.3325 42.1514 13.8281 40.0781C13.8722 39.8931 13.9163 39.708 13.9617 39.5174C15.0171 35.2756 16.8191 31.1594 19.4531 27.6563C19.672 27.3639 19.672 27.3639 19.8953 27.0657C25.7987 19.4621 34.0785 14.514 43.6817 13.3008C50.7029 12.5319 57.4264 13.7889 63.75 16.875Z" fill="#F1F6FC"/>
<path d="M60.9375 15.7031C65.4096 17.492 68.9802 19.8844 72.4219 23.2031C72.6044 23.3708 72.7868 23.5385 72.9749 23.7112C79.2186 29.6118 82.4725 38.5701 82.7637 47.0224C82.8469 52.3411 82.0552 58.3548 79.2984 62.9993C78.8662 64.0326 78.8893 64.9414 78.9111 66.0498C78.9131 66.2644 78.9151 66.4789 78.9171 66.7C78.9518 68.7047 79.1622 70.6742 79.4531 72.6562C79.6797 72.6454 79.9063 72.6345 80.1398 72.6233C83.3945 72.5331 85.4071 73.356 87.7926 75.5587C88.4995 76.2446 89.199 76.9373 89.8961 77.6331C90.1641 77.8989 90.4323 78.1647 90.7005 78.4304C91.424 79.1478 92.146 79.8668 92.8676 80.5862C93.3187 81.036 93.7701 81.4855 94.2216 81.9349C95.6353 83.3421 97.048 84.7503 98.4594 86.1599C100.087 87.7854 101.718 89.4078 103.351 91.0276C104.615 92.282 105.877 93.539 107.137 94.798C107.889 95.5493 108.642 96.2994 109.397 97.0468C110.107 97.7486 110.813 98.4536 111.517 99.1614C111.775 99.4205 112.035 99.6785 112.297 99.9351C112.653 100.286 113.005 100.64 113.355 100.996C113.554 101.193 113.752 101.39 113.956 101.594C114.472 102.324 114.48 102.717 114.375 103.594C113.5 105.766 111.898 107.441 110.283 109.085C109.935 109.44 109.592 109.8 109.25 110.161C107.562 111.909 105.377 114.097 102.891 114.609C101.872 114.309 101.289 113.8 100.545 113.056C100.433 112.945 100.32 112.834 100.205 112.719C99.8305 112.348 99.4588 111.974 99.0871 111.6C98.8188 111.333 98.5503 111.065 98.2818 110.798C97.5533 110.073 96.827 109.346 96.1013 108.618C95.3406 107.855 94.5781 107.094 93.816 106.333C92.5357 105.054 91.2568 103.774 89.9788 102.492C88.5036 101.013 87.0258 99.5367 85.5467 98.0615C84.2754 96.7935 83.0056 95.524 81.7369 94.2535C80.9798 93.4953 80.2222 92.7376 79.4634 91.9811C78.7492 91.269 78.0368 90.5551 77.3257 89.84C77.0653 89.5786 76.8043 89.3178 76.5426 89.0577C74.1452 86.6733 72.3879 84.459 72.3779 80.9326C72.3889 80.5956 72.4022 80.2585 72.4219 79.9219C70.043 78.8556 66.0385 78.3539 63.5146 79.1286C62.7136 79.4392 61.945 79.8091 61.1728 80.1846C53.7759 83.7666 44.2795 83.6085 36.6119 81.0736C31.3722 79.2176 26.8818 76.344 22.9688 72.4219C22.7503 72.2062 22.5319 71.9904 22.3068 71.7682C16.6406 65.8999 16.6406 65.8999 16.6406 63.2812C17.699 63.1666 18.7578 63.0822 19.8193 63.0029C20.1186 62.9701 20.4178 62.9374 20.7262 62.9036C21.6164 62.8458 22.3361 62.832 23.2031 63.0469C23.9683 63.803 24.371 64.6689 24.8438 65.625C25.2604 66.1807 25.7243 66.6781 26.2061 67.1777C26.3273 67.3055 26.4485 67.4332 26.5734 67.5648C31.491 72.6926 38.2937 76.5821 45.5521 76.7422C46.2422 76.751 46.9319 76.7491 47.6221 76.7432C47.8025 76.7423 47.9829 76.7414 48.1688 76.7405C55.1613 76.6927 61.4629 74.45 66.7969 69.8438C66.9742 69.6975 67.1516 69.5513 67.3343 69.4006C72.6292 64.9168 76.0488 57.7257 76.6406 50.8594C76.8302 47.5207 76.7351 44.2682 75.9375 41.0156C75.901 40.8565 75.8645 40.6973 75.827 40.5334C74.1491 33.3633 69.243 27.0784 63.0469 23.2031C62.3508 22.8164 61.6547 22.4297 60.9375 22.0312C60.9375 19.943 60.9375 17.8547 60.9375 15.7031Z" fill="#DAE8F6"/>
<path d="M60.9375 15.7031C65.4096 17.492 68.9802 19.8844 72.4219 23.2031C72.6044 23.3708 72.7868 23.5385 72.9749 23.7112C79.2186 29.6118 82.4725 38.5701 82.7637 47.0224C82.8467 52.3326 82.0633 58.3636 79.2984 62.9956C78.8612 64.0458 78.8894 64.9826 78.9111 66.1084C78.9131 66.3262 78.9151 66.5441 78.9171 66.7685C78.9427 68.2469 79.0694 69.6578 79.3506 71.1108C79.4527 71.7163 79.4709 72.2779 79.4531 72.8906C79.2915 72.9393 79.1299 72.9879 78.9633 73.038C76.5312 73.8354 74.9405 74.9343 73.6615 77.1744C73.2726 77.9959 72.9661 78.833 72.6562 79.6875C72.5268 79.6662 72.3973 79.6449 72.2639 79.623C66.5929 78.6782 66.5929 78.6782 61.1728 80.1846C53.7759 83.7666 44.2795 83.6085 36.6119 81.0736C31.3722 79.2176 26.8818 76.344 22.9688 72.4219C22.7503 72.2062 22.5319 71.9904 22.3068 71.7682C16.6406 65.8999 16.6406 65.8999 16.6406 63.2813C17.699 63.1666 18.7578 63.0822 19.8193 63.0029C20.1186 62.9702 20.4178 62.9374 20.7262 62.9036C21.6164 62.8458 22.3361 62.832 23.2031 63.0469C23.9683 63.803 24.371 64.6689 24.8438 65.625C25.2604 66.1807 25.7243 66.6781 26.2061 67.1777C26.3273 67.3055 26.4485 67.4332 26.5734 67.5648C31.491 72.6926 38.2937 76.5821 45.5521 76.7423C46.2422 76.751 46.9319 76.7491 47.6221 76.7432C47.8025 76.7423 47.9829 76.7414 48.1688 76.7405C55.1613 76.6927 61.4629 74.45 66.7969 69.8438C66.9742 69.6975 67.1516 69.5513 67.3343 69.4006C72.6292 64.9168 76.0488 57.7257 76.6406 50.8594C76.8302 47.5207 76.7351 44.2682 75.9375 41.0156C75.901 40.8565 75.8645 40.6973 75.827 40.5334C74.1491 33.3633 69.243 27.0784 63.0469 23.2031C62.3508 22.8164 61.6547 22.4297 60.9375 22.0313C60.9375 19.943 60.9375 17.8547 60.9375 15.7031Z" fill="#94AAC7"/>
<path d="M60.9375 15.7031C61.1398 16.4392 61.1398 16.4392 61.1719 17.3438C61.1789 17.507 61.186 17.6703 61.1933 17.8386C61.2115 18.3577 61.2154 18.8752 61.2158 19.3945C61.2187 19.5713 61.2216 19.748 61.2245 19.9301C61.2269 20.834 61.2161 21.2618 60.7031 22.0313C60.4901 21.9406 60.2771 21.85 60.0577 21.7566C52.6889 18.6788 44.615 18.1684 37.1071 21.0997C34.2745 22.2877 31.6494 23.8043 29.2969 25.7813C29.0815 25.9586 28.866 26.1359 28.6441 26.3187C23.3146 30.9135 20.0801 37.5938 19.2187 44.5313C18.8135 50.6474 19.5288 56.7647 22.7106 62.1085C22.9687 62.5781 22.9687 62.5781 22.9687 63.0469C20.8646 63.3586 18.7621 63.3018 16.6406 63.2813C12.7599 56.5106 12.0352 47.5773 13.8281 40.0781C13.8722 39.8931 13.9163 39.708 13.9617 39.5174C15.0171 35.2756 16.8191 31.1594 19.4531 27.6563C19.672 27.3639 19.672 27.3639 19.8953 27.0657C25.7986 19.4621 34.0785 14.514 43.6816 13.3008C48.8059 12.7396 56.5254 12.6362 60.9375 15.7031Z" fill="#BFD2E9"/>
<path d="M52.7838 35.0409C54.1588 36.1399 55.2334 37.6133 55.5469 39.375C55.8153 43.2428 54.9082 46.0263 52.6534 49.1928C52.424 49.5155 52.1954 49.8389 51.9677 50.1628C51.7431 50.4813 51.516 50.7979 51.2859 51.1123C50.1171 52.7614 49.6622 54.4609 49.3881 56.4459C49.1654 57.1129 48.8876 57.3151 48.2812 57.6562C47.3169 57.6562 46.8196 57.5687 46.0693 56.9531C45.3304 55.5345 45.6261 54.247 46.084 52.7637C46.8721 50.6011 47.9866 48.8036 49.3652 46.9775C51.0706 44.6967 51.9495 42.7758 51.5625 39.8438C51.0552 38.7539 50.5116 38.2697 49.4531 37.7344C48.1648 37.5419 47.0067 37.5644 45.8203 38.1152C44.4814 39.3872 44.1724 40.4341 43.9892 42.2333C43.7933 43.0325 43.5405 43.3326 42.8906 43.8281C42.2419 44.0118 41.6709 43.9785 41.0156 43.8281C40.3834 43.3382 40.1344 42.9849 39.9985 42.1912C39.8974 39.911 40.7198 37.8173 42.1875 36.0938C45.0726 33.2955 49.3895 32.7261 52.7838 35.0409Z" fill="#4A8AF9"/>
<path d="M110.625 3.75C111.288 4.36059 111.531 4.73426 111.68 5.625C111.492 6.75095 110.844 7.3278 109.964 8.02002C109.707 8.19987 109.449 8.378 109.189 8.55469C108.894 8.76083 108.599 8.96713 108.304 9.17358C108.148 9.2822 107.992 9.39081 107.831 9.50272C106.984 10.0959 106.146 10.7024 105.308 11.3086C105.131 11.4362 104.954 11.5639 104.772 11.6954C103.287 12.7693 101.812 13.8564 100.338 14.9452C98.5658 16.2531 96.7808 17.5427 94.9932 18.8293C94.4172 19.2447 93.8423 19.6614 93.2675 20.0784C93.0737 20.2189 92.8799 20.3594 92.6803 20.5041C92.307 20.7747 91.9338 21.0456 91.5609 21.3167C91.3939 21.4377 91.2268 21.5587 91.0547 21.6833C90.9073 21.7904 90.7598 21.8974 90.6079 22.0077C89.7682 22.5875 89.1408 22.6033 88.125 22.5C87.3405 21.9325 87.0093 21.592 86.8066 20.6396C87.1506 18.9542 88.7141 18.0196 90.0439 17.0947C90.4236 16.8256 90.8033 16.5564 91.1829 16.2872C91.3761 16.1512 91.5693 16.0152 91.7683 15.875C92.6631 15.2432 93.5509 14.6018 94.4385 13.96C94.6117 13.835 94.7848 13.7101 94.9632 13.5813C96.2443 12.6558 97.5179 11.7203 98.7891 10.7813C100.763 9.32342 102.747 7.88158 104.74 6.44989C105.228 6.09804 105.716 5.74452 106.203 5.39063C106.5 5.17575 106.797 4.96091 107.095 4.74609C107.229 4.64798 107.364 4.54987 107.502 4.44878C108.609 3.65164 109.282 3.36616 110.625 3.75Z" fill="#4C90FB"/>
<path d="M108.75 26.25C109.411 26.8584 109.654 27.2414 109.819 28.125C109.641 29.0776 109.246 29.3758 108.516 30C107.827 30.2833 107.827 30.2833 107.057 30.4773C106.767 30.5523 106.478 30.6273 106.18 30.7045C105.866 30.7814 105.551 30.8582 105.237 30.9348C104.912 31.0169 104.587 31.0993 104.262 31.182C103.583 31.3541 102.903 31.5234 102.222 31.6906C101.353 31.904 100.486 32.123 99.6189 32.3439C98.9483 32.5144 98.2772 32.6825 97.6059 32.85C97.2861 32.9299 96.9665 33.0103 96.647 33.0913C93.4088 33.9089 93.4088 33.9089 91.875 33.75C91.0672 33.1778 90.7546 32.8524 90.5713 31.875C90.7368 30.9925 91.0173 30.643 91.6406 30C92.3401 29.7062 92.3401 29.7062 93.1662 29.4975C93.3173 29.4581 93.4683 29.4187 93.6239 29.3781C94.1209 29.2496 94.6192 29.1276 95.1178 29.0057C95.4652 28.9178 95.8126 28.8296 96.1599 28.7411C96.887 28.5568 97.6148 28.3755 98.3432 28.1964C99.2749 27.9672 100.205 27.7318 101.135 27.4942C101.851 27.3115 102.569 27.1316 103.287 26.9525C103.63 26.8667 103.973 26.7802 104.316 26.6929C104.796 26.5712 105.276 26.4532 105.757 26.3362C106.03 26.2684 106.304 26.2006 106.585 26.1308C107.39 26.0086 107.965 26.0419 108.75 26.25Z" fill="#4283F7"/>
<path d="M78.5156 64.2188C78.593 64.2188 78.6703 64.2188 78.75 64.2188C78.7615 64.5049 78.773 64.791 78.7848 65.0858C78.8742 67.1144 78.9972 69.0936 79.3588 71.0944C79.4509 71.7038 79.4699 72.2754 79.4531 72.8906C79.2915 72.9393 79.1299 72.9879 78.9633 73.038C76.5312 73.8354 74.9405 74.9343 73.6615 77.1744C73.2726 77.9959 72.9661 78.833 72.6563 79.6875C72.5256 79.6674 72.3949 79.6474 72.2602 79.6267C69.5806 79.219 66.9279 78.8707 64.2188 78.75C64.8556 78.0264 65.6488 77.567 66.46 77.0654C67.9038 76.1528 69.2491 75.1766 70.5469 74.0625C70.759 73.8818 70.9711 73.7012 71.1896 73.515C73.9778 71.0667 76.1113 68.1139 78.0469 64.9658C78.2016 64.7193 78.3563 64.4728 78.5156 64.2188Z" fill="#3D7BF4"/>
<path d="M111.797 99.8438C112.204 100.187 112.608 100.531 113.01 100.88C113.339 101.165 113.673 101.443 114.009 101.719C114.521 102.374 114.444 102.774 114.375 103.594C113.5 105.766 111.898 107.441 110.283 109.085C109.935 109.44 109.592 109.8 109.25 110.161C107.562 111.909 105.377 114.097 102.891 114.609C101.878 114.352 101.307 113.811 100.591 113.071C100.406 112.882 100.22 112.694 100.03 112.499C99.6094 112.031 99.6094 112.031 99.6094 111.797C99.8897 111.729 100.17 111.662 100.459 111.592C104.792 110.107 108.885 105.609 111.094 101.719C111.385 101.092 111.601 100.508 111.797 99.8438Z" fill="#94AAC7"/>
<path d="M86.25 3.75C86.8947 4.34377 87.1619 4.69593 87.2611 5.5719C87.1705 6.50304 86.8698 7.03534 86.3901 7.83691C86.3066 7.97801 86.2232 8.1191 86.1372 8.26446C85.87 8.71453 85.5986 9.16189 85.3271 9.60937C85.1528 9.90249 84.9787 10.1958 84.8048 10.4892C84.279 11.3728 83.7436 12.2503 83.2031 13.125C83.108 13.279 83.013 13.4329 82.915 13.5916C82.6319 14.0477 82.3463 14.5022 82.0596 14.9561C81.9731 15.095 81.8867 15.234 81.7976 15.3772C81.3681 16.0499 81.0665 16.4244 80.3906 16.875C79.3589 17.0087 78.9144 16.994 78.0615 16.377C77.4784 15.5641 77.4729 15.2783 77.5781 14.2969C77.8285 13.7322 78.0829 13.2405 78.3984 12.7148C78.4884 12.5602 78.5783 12.4057 78.6709 12.2464C79.0052 11.677 79.3458 11.1118 79.6875 10.5469C79.8382 10.2967 79.9889 10.0465 80.1441 9.7887C80.6436 8.96071 81.1464 8.13482 81.6504 7.30957C81.7333 7.17334 81.8163 7.03711 81.9018 6.89675C82.1409 6.5048 82.3818 6.11386 82.6227 5.72296C82.7627 5.49522 82.9027 5.26747 83.0469 5.03282C83.9257 3.7285 84.6631 3.29661 86.25 3.75Z" fill="#3F7EF6"/>
<path d="M47.8281 59.8984C48.5405 60.0581 48.9532 60.4224 49.4531 60.9375C49.8165 61.6642 49.7555 62.2451 49.6875 63.0469C49.2667 63.6922 48.9721 64.1077 48.2813 64.4531C46.6541 64.6132 46.6541 64.6132 45.7031 63.999C45.1566 63.1621 45.0603 62.6613 45.1227 61.6782C45.4424 60.229 46.4823 59.8144 47.8281 59.8984Z" fill="#346FF0"/>
</svg>
